<?xml version="1.0" encoding="utf-8"?>
<!-- Generator: Adobe Illustrator 20.1.0, SVG Export Plug-In . SVG Version: 6.00 Build 0)  -->
<svg version="1.1" id="Layer_1" xmlns="http://www.w3.org/2000/svg" xmlns:xlink="http://www.w3.org/1999/xlink" x="0px" y="0px"
	 viewBox="0 0 632.4 113.5" style="enable-background:new 0 0 632.4 113.5;" xml:space="preserve">
<style type="text/css">
	.st0{fill:#0088CE;}
	.st1{fill:#474C55;}
</style>
<g>
	<path class="st0" d="M91.7,57.8c17.8-14.5,32.1-26.1,32.3-26H79.4L91.7,57.8z"/>
	<polygon class="st0" points="0,31.8 100,91.2 71.9,31.8 	"/>
	<path class="st0" d="M23.5,113.5c0,0,20.2-16.6,42.6-34.8l-26-15.4L23.5,113.5z"/>
	<path class="st0" d="M60.6,0l-8.9,27.3c6-3.7,45-27.5,45.3-27.3H60.6z"/>
</g>
<path class="st1" d="M170.8,30.8h-22.7v9.8v2.5v47.5h14V72.8h7.6c15.3,0,25-8.2,25-21.4C194.7,38.7,185.6,30.8,170.8,30.8z
	 M170.6,60.5h-8.5V43.1l0,0h8.5c6.1,0,10.2,3.2,10.2,8.3C180.8,57,176.7,60.5,170.6,60.5z"/>
<path class="st1" d="M240.6,74h-30.8c1.2,4.2,4.5,7.5,10.6,7.5c3.4,0,5.8-1.1,7.2-3.2h12.8c-2.3,8.1-10.2,13.3-20.2,13.3
	c-13.6,0-22.7-9.4-22.7-22.1s9-22.1,22.5-22.1c11.9,0,20.9,8.6,20.9,21.2C240.9,70.5,240.9,72.2,240.6,74z M209.6,65.4h19.1
	c-0.7-4.9-4-7.9-9.1-7.9C213.9,57.6,210.7,60.9,209.6,65.4z"/>
<path class="st1" d="M259.4,53.2c3.8-3.5,8.6-5.5,14.8-5.5v11.7c-6.6,0.3-11.3,2.2-14.8,6.1v25.3h-12.3V48.4h12.3V53.2z"/>
<path class="st1" d="M280.4,42.4c0-11.5,7.2-19.1,18-19.1c3.1,0,6.8,0.5,10.4,1.5l-1.7,10.5c-2.1-0.4-4.7-0.8-6.3-0.8
	c-4.9,0-8.2,3.1-8.2,7.8v6.1h16.1v10.3h-16.1v32h-12.3L280.4,42.4z"/>
<path class="st1" d="M354.5,74h-30.8c1.2,4.2,4.5,7.5,10.6,7.5c3.4,0,5.8-1.1,7.2-3.2h12.8c-2.3,8.1-10.2,13.3-20.2,13.3
	c-13.6,0-22.7-9.4-22.7-22.1s9-22.1,22.5-22.1c11.9,0,20.9,8.6,20.9,21.2C354.7,70.5,354.7,72.2,354.5,74z M323.5,65.4h19.1
	c-0.7-4.9-4-7.9-9.1-7.9C327.8,57.6,324.6,60.9,323.5,65.4z"/>
<path class="st1" d="M391.2,74.1h12.3c-1.2,10.4-10.2,17.6-21.3,17.6c-12.8,0-22.7-9.4-22.7-22.1s9.9-22.1,22.7-22.1
	c11.1,0,20,7.2,21.3,17.6h-12.3c-0.9-4.1-4.3-6.7-9-6.7c-6.4,0-10.6,4.9-10.6,11.2c0,6.3,4.2,11.1,10.6,11.1
	C386.8,80.7,390.3,78.2,391.2,74.1z"/>
<path class="st1" d="M408.1,33.3h12.2v15.1h15.3v10.3h-15.3v15c0,4.8,2.9,7,7.4,7c2.3,0,4.8-0.5,7.2-1.1l1.6,10.5
	C431.3,91.7,429,92,425,92c-10.2,0-17-7.2-17-18.2L408.1,33.3z"/>
<path class="st1" d="M502.1,90.1h-9.8l-0.7-8.3c-4.2,5.9-10.8,9.5-20,9.5c-18.4,0-31.4-13.9-31.4-30.5c0-19,14-32.1,31.8-32.1
	c13.2,0,26,7.3,29.4,22.3h-13.6c-3-8.4-10.2-10.2-15.6-10.2c-11.1,0-19.1,7.6-19.1,19.9c0,9.9,7.2,18.4,18.6,18.4
	c8.4,0,14-4.5,16.6-11.2h-17.8V56.6H502v33.5H502.1z"/>
<path class="st1" d="M530.6,110.4h-12.9l8.2-19.3l-20.6-43.4h13.1l13.7,28.9l12.4-28.9h12.9L530.6,110.4z"/>
<path class="st1" d="M632.4,66.8V90h-12.3V67.9c0-6.7-3.3-10.3-9-10.3c-2.6,0-5.4,1.1-7.9,4.7c0.2,1.5,0.4,3,0.4,4.6v23.2h-12.3
	V67.9c0-6.7-3.3-10.3-9.1-10.3c-2.4,0-5,1.4-7.5,4.8v27.7h-12.3V47.8h12.3v2.6c2.6-2.5,5.5-3.9,10.4-3.9c5.4,0,10.2,2.1,13.5,6
	c4.5-4.2,8.7-6,15.4-6C624.3,46.4,632.4,54.5,632.4,66.8z"/>
</svg>
